<svg width="1440" height="1028" viewBox="0 0 1440 1028" fill="none" xmlns="http://www.w3.org/2000/svg">
<g id="scisor 2">
<g id="scisor 1">
<g id="separate 1">
<g id="separte">
<g id="scisor">
<g id="scisor-outline" filter="url(#filter0_i)">
<path id="Vector_5" d="M720 764C853.346 764 970 656.941 970 514C970 371.059 853.346 264 720 264C586.654 264 470 371.059 470 514C470 656.941 586.654 764 720 764Z" stroke="#DDA20B" stroke-width="25"/>
</g>
<path id="scisor-container" d="M720.999 757C855.206 757 964 648.207 964 514C964 379.796 855.206 271 720.999 271C586.794 271 478 379.796 478 514C478 648.207 586.794 757 720.999 757Z" fill="white"/>
<path id="scisor-icon" d="M650.778 503.529L686.876 455.369C671.872 452.995 644.321 452.471 621.756 473.883C586.183 507.642 571.774 580.568 568.77 598.223L659.179 684.02C675.457 682.694 747.516 673.563 816.957 607.676C817.689 606.252 834.608 594.39 820.774 581.268C814.171 575.005 803.252 575.122 796.508 581.52C793.073 584.786 787.736 584.824 784.376 581.635C781.012 578.451 781.063 573.378 784.496 570.122L809.03 546.836C821.496 535.004 809.748 515.043 792.341 519.84L772.26 536.155C768.589 539.189 763.132 538.669 760.12 535.354C757.004 531.937 757.671 526.752 761.217 523.836C831.384 465.417 821.136 472.446 866.287 432.295C883.15 418.966 861.935 395.399 845.313 408.887L736.102 502.088C732.927 504.651 728.059 504.703 724.935 501.971C721.325 499.014 721.244 494.748 723.602 491.387L799.774 379.009C810.907 364.703 788.996 348.806 777.268 363.232L664.644 512.714C661.931 516.432 656.453 517.295 652.726 514.689C651.817 514.088 651.043 513.32 650.449 512.428C649.856 511.538 649.461 510.543 649.278 509.5C649.098 508.457 649.14 507.394 649.398 506.369C649.654 505.345 650.128 504.378 650.787 503.529H650.778Z" fill="#3B4262"/>
</g>
</g>
</g>
</g>
</g>
<defs>
<filter id="filter0_i" x="457.5" y="247.5" width="525" height="529" filterUnits="userSpaceOnUse" color-interpolation-filters="sRGB">
<feFlood flood-opacity="0" result="BackgroundImageFix"/>
<feBlend mode="normal" in="SourceGraphic" in2="BackgroundImageFix" result="shape"/>
<feColorMatrix in="SourceAlpha" type="matrix" values="0 0 0 0 0 0 0 0 0 0 0 0 0 0 0 0 0 0 127 0" result="hardAlpha"/>
<feOffset dy="-10"/>
<feGaussianBlur stdDeviation="2"/>
<feComposite in2="hardAlpha" operator="arithmetic" k2="-1" k3="1"/>
<feColorMatrix type="matrix" values="0 0 0 0 0 0 0 0 0 0 0 0 0 0 0 0 0 0 0.25 0"/>
<feBlend mode="normal" in2="shape" result="effect1_innerShadow"/>
</filter>
</defs>
</svg>
