<svg width="1800" height="1800" viewBox="0 0 1800 1800" fill="none" xmlns="http://www.w3.org/2000/svg">
<path d="M1800 900C1800 1397.06 1397.06 1800 900 1800C402.944 1800 0 1397.06 0 900C0 402.944 402.944 0 900 0C1397.06 0 1800 402.944 1800 900Z" fill="#BCB5B5" fill-opacity="0.1"/>
<path d="M1596 900C1596 1286.6 1282.6 1600 896 1600C509.401 1600 196 1286.6 196 900C196 513.401 509.401 200 896 200C1282.6 200 1596 513.401 1596 900Z" fill="#BCB5B5" fill-opacity="0.08"/>
<path d="M896 1400C1172.14 1400 1396 1176.14 1396 900C1396 623.858 1172.14 400 896 400C619.858 400 396 623.858 396 900C396 1176.14 619.858 1400 896 1400Z" fill="#C4C4C4" fill-opacity="0.08"/>
<g filter="url(#filter0_i)">
<path d="M900 1150C1033.33 1150 1150 1042.94 1150 900C1150 757.059 1033.33 650 900 650C766.667 650 650 757.059 650 900C650 1042.94 766.667 1150 900 1150Z" stroke="#DD0BAE" stroke-width="25"/>
</g>
<path d="M899.999 1143C1034.21 1143 1143 1034.21 1143 900C1143 765.796 1034.21 657 899.999 657C765.789 657 657 765.796 657 900C657 1034.21 765.789 1143 899.999 1143Z" fill="white"/>
<path d="M975.931 768.164C989.534 758.743 1002.6 756.705 1012.71 762.423C1035.31 775.232 1032.06 822.908 1022.79 843.568C1017.56 855.232 1008.3 863.752 995.232 868.932C990.154 886.824 983.061 902.198 973.992 914.912C980 920.513 987.598 923.577 995.427 923.563H995.813L1008.57 909.52C1011.78 905.986 1016.98 905.984 1020.19 909.52C1023.41 913.05 1023.41 918.786 1020.19 922.32L1019.07 923.563H1021.63C1026.16 923.563 1029.85 927.617 1029.85 932.617C1029.85 937.613 1026.16 941.669 1021.63 941.669H1019.07L1020.19 942.912C1023.41 946.441 1023.41 952.176 1020.19 955.714C1018.57 957.48 1016.47 958.365 1014.38 958.365C1012.29 958.365 1010.15 957.48 1008.57 955.714L995.813 941.669H995.427C983.449 941.685 971.898 936.912 962.829 928.214C961.047 929.986 959.264 931.689 957.402 933.315C941.628 947.063 922.402 955.054 899.884 957.243C902.752 966.89 903.256 977.219 901.317 987.155L901.24 987.579L911.047 1004.82C912.248 1006.9 912.636 1009.42 912.171 1011.84C911.705 1014.25 910.427 1016.36 908.565 1017.72C907.248 1018.69 905.697 1019.2 904.11 1019.21C902.713 1019.2 901.358 1018.81 900.116 1018.06C898.915 1017.31 897.868 1016.23 897.132 1014.92L896.278 1013.39L895.697 1016.23C895.311 1018.31 894.303 1020.17 892.829 1021.5C891.358 1022.85 889.535 1023.58 887.636 1023.59C887.055 1023.59 886.435 1023.52 885.854 1023.37C883.721 1022.83 881.821 1021.35 880.659 1019.27C879.457 1017.19 879.069 1014.67 879.535 1012.27L880.077 1009.42L878.76 1010.4C877.829 1011.06 876.821 1011.51 875.736 1011.73C874.65 1011.95 873.565 1011.92 872.482 1011.66C871.435 1011.4 870.427 1010.91 869.534 1010.21C868.644 1009.51 867.868 1008.62 867.287 1007.59C866.124 1005.5 865.697 1002.98 866.163 1000.57C866.628 998.151 867.945 996.043 869.807 994.685L885.077 983.606L885.154 983.18C886.821 974.579 885.736 965.606 882.132 957.782C875.35 957.559 868.606 956.928 861.9 955.899C842.132 952.912 830.892 962.646 827.945 965.698C804.65 989.68 800.116 1032.05 800.077 1032.48C799.846 1034.76 798.876 1036.85 797.364 1038.38C795.854 1039.9 793.876 1040.75 791.821 1040.76C790.465 1040.76 789.108 1040.38 787.906 1039.67C786.705 1038.96 785.697 1037.93 784.923 1036.67C784.573 1036.06 775.813 1021.45 771.937 1000.82C766.744 972.797 772.945 947.101 789.961 926.495C800.039 914.327 812.752 905.227 826.86 900.054L825.116 900.554C820.658 898.234 815.815 897.034 810.892 897.038H810.504L797.713 911.083C796.124 912.791 794.03 913.739 791.86 913.734C789.768 913.734 787.636 912.849 786.047 911.083C785.27 910.248 784.65 909.252 784.264 908.155C783.837 907.054 783.604 905.874 783.604 904.68C783.604 903.486 783.837 902.306 784.264 901.205C784.65 900.108 785.27 899.113 786.047 898.277L787.171 897.038H784.573C780.039 897.038 776.356 892.986 776.356 887.986C776.356 882.984 780.039 878.937 784.573 878.937H787.171L786.047 877.694C785.27 876.858 784.65 875.86 784.264 874.766C783.837 873.664 783.604 872.484 783.604 871.291C783.604 870.092 783.837 868.912 784.264 867.815C784.65 866.714 785.27 865.718 786.047 864.883C789.264 861.354 794.457 861.354 797.713 864.883L810.504 878.928H810.892C817.713 878.917 824.496 880.462 830.774 883.48C837.093 886.495 842.752 890.921 847.441 896.475L846.512 895.423C854.069 894.588 861.628 894.739 869.108 895.874C890 899.029 907.094 895.791 920.27 886.209C912.829 875.946 908.799 863.142 908.799 849.953V849.516L896.201 834.986C894.691 833.205 893.837 830.831 893.837 828.365C893.837 825.899 894.691 823.529 896.201 821.743C896.939 820.878 897.829 820.189 898.837 819.718C899.807 819.248 900.892 819.004 901.939 819.004C903.022 819.004 904.11 819.248 905.077 819.718C906.085 820.189 906.978 820.878 907.713 821.743L908.837 823.029V820.106C908.837 814.932 912.48 810.739 916.939 810.739C921.435 810.739 925.077 814.932 925.077 820.106V823.025L926.201 821.743C926.939 820.878 927.829 820.189 928.837 819.718C929.807 819.248 930.892 819.004 931.978 819.004C933.022 819.004 934.11 819.248 935.077 819.718C936.085 820.189 936.978 820.878 937.713 821.743C942.559 827.315 939.069 833.437 937.713 834.986L925.077 849.516V849.946C925.077 858.791 927.791 867.243 932.559 873.953C938.526 866.013 943.217 856.02 946.589 844.004C944.108 836.354 940.272 818.232 950.116 797.685C955.234 786.923 965.154 775.613 975.931 768.164Z" fill="#3B4262"/>
<defs>
<filter id="filter0_i" x="637.5" y="633.5" width="525" height="529" filterUnits="userSpaceOnUse" color-interpolation-filters="sRGB">
<feFlood flood-opacity="0" result="BackgroundImageFix"/>
<feBlend mode="normal" in="SourceGraphic" in2="BackgroundImageFix" result="shape"/>
<feColorMatrix in="SourceAlpha" type="matrix" values="0 0 0 0 0 0 0 0 0 0 0 0 0 0 0 0 0 0 127 0" result="hardAlpha"/>
<feOffset dy="-10"/>
<feGaussianBlur stdDeviation="2"/>
<feComposite in2="hardAlpha" operator="arithmetic" k2="-1" k3="1"/>
<feColorMatrix type="matrix" values="0 0 0 0 0 0 0 0 0 0 0 0 0 0 0 0 0 0 0.25 0"/>
<feBlend mode="normal" in2="shape" result="effect1_innerShadow"/>
</filter>
</defs>
</svg>
