<svg width="1800" height="1800" viewBox="0 0 1800 1800" fill="none" xmlns="http://www.w3.org/2000/svg">
<g id="Frame 3">
<g id="Frame 1">
<g id="win bg">
<path id="bottom" d="M1800 900C1800 1397.06 1397.06 1800 900 1800C402.944 1800 0 1397.06 0 900C0 402.944 402.944 0 900 0C1397.06 0 1800 402.944 1800 900Z" fill="#BCB5B5" fill-opacity="0.1"/>
<path id="mid" d="M1596 900C1596 1286.6 1282.6 1600 896 1600C509.401 1600 196 1286.6 196 900C196 513.401 509.401 200 896 200C1282.6 200 1596 513.401 1596 900Z" fill="#BCB5B5" fill-opacity="0.08"/>
<path id="top" d="M896 1400C1172.14 1400 1396 1176.14 1396 900C1396 623.858 1172.14 400 896 400C619.858 400 396 623.858 396 900C396 1176.14 619.858 1400 896 1400Z" fill="#C4C4C4" fill-opacity="0.08"/>
</g>
</g>
<g id="paper 3">
<g id="paper 2">
<g id="paper 1">
<g id="separate 1 1">
<g id="paper">
<g id="paper-outline" filter="url(#filter0_i)">
<path id="Vector" d="M916 1136C1049.33 1136 1166 1028.94 1166 886C1166 743.059 1049.33 636 916 636C782.667 636 666 743.059 666 886C666 1028.94 782.667 1136 916 1136Z" stroke="#280BDD" stroke-width="25"/>
</g>
<path id="paper-container" d="M917.999 1129C1052.21 1129 1161 1020.21 1161 886C1161 751.796 1052.21 643 917.999 643C783.789 643 675 751.796 675 886C675 1020.21 783.789 1129 917.999 1129Z" fill="white"/>
<path id="paper-icon" d="M1047.71 793.854C1045.42 793.059 1043.02 792.709 1040.57 792.831C1037.28 793.038 1034.6 794.232 1033.06 796.194C1023.75 807.824 1016.16 829.786 1009.99 847.441C1007.2 855.597 1003.4 866.52 1000.69 871.705C997.821 857.18 1001.04 803.98 1002.28 783.491L1002.32 783.16C1003.17 768.928 1003.29 766.428 1003.13 765.331C1001.74 757.525 998.248 752.399 992.705 750.106C987.124 747.777 979.837 748.811 972.047 753.016C968.094 755.14 967.008 762.412 963.675 795.39L963.636 795.538C961.815 813.655 957.512 855.378 952.278 862.327C946.35 852.606 938.209 797.374 934.683 773.466C932.24 756.723 930.807 747.108 929.837 744.205C927.782 738.122 919.218 732.95 910.768 732.66C903.713 732.349 897.898 735.554 895.146 741.135C889.953 746.282 891.813 763.34 897.512 803.748C900.226 822.984 905.846 862.703 902.317 867.164C895.264 866.475 883.171 841.592 866.35 793.18C861.62 779.626 860.185 775.55 858.713 773.764C855.846 767.545 846.154 762.748 837.435 763.295C836.697 763.34 836 763.423 835.264 763.545C830.73 764.354 820.303 768.106 822.551 785.412C828.675 809.403 835.341 827.014 841.813 844.113L841.931 844.453C845.807 854.698 849.488 864.374 852.898 875.108C860.884 900.462 857.783 916.189 857.744 916.369C857.474 917.984 856.931 918.971 856.077 919.32C855.73 919.457 855.342 919.534 854.953 919.55C852.396 919.705 848.598 918.205 846.62 917.223C842.124 909.554 819.799 873.016 799.565 867.95L798.829 867.757L798.093 867.82C790.65 868.446 785.226 870.953 781.854 875.273C776.581 882.106 778.791 890.806 779.295 892.554L779.606 893.176C779.76 893.441 796 919.899 798.518 932.205C800.689 942.761 811.892 954.194 820.923 963.383L821.272 963.761C824.217 966.761 826.736 969.365 828.752 971.768C854.915 996.155 896.27 1016.66 896.581 1016.84C901.774 1020.23 904.644 1023.53 904.953 1026.35C905.069 1027.42 904.76 1028.5 904.024 1029.35L903.094 1030.19L908.829 1035.16L1017.94 1028.31L1022.59 1009.25C1036.97 955.432 1033.98 909.543 1033.95 909.239C1033.98 907.55 1038.02 891.219 1041.27 878.025L1041.35 877.689C1047.82 851.408 1055.85 818.709 1057.39 806.277C1058.06 800.957 1054.26 796.077 1047.71 793.854Z" fill="#3B4262"/>
</g>
</g>
</g>
</g>
</g>
</g>
<defs>
<filter id="filter0_i" x="653.5" y="619.5" width="525" height="529" filterUnits="userSpaceOnUse" color-interpolation-filters="sRGB">
<feFlood flood-opacity="0" result="BackgroundImageFix"/>
<feBlend mode="normal" in="SourceGraphic" in2="BackgroundImageFix" result="shape"/>
<feColorMatrix in="SourceAlpha" type="matrix" values="0 0 0 0 0 0 0 0 0 0 0 0 0 0 0 0 0 0 127 0" result="hardAlpha"/>
<feOffset dy="-10"/>
<feGaussianBlur stdDeviation="2"/>
<feComposite in2="hardAlpha" operator="arithmetic" k2="-1" k3="1"/>
<feColorMatrix type="matrix" values="0 0 0 0 0 0 0 0 0 0 0 0 0 0 0 0 0 0 0.25 0"/>
<feBlend mode="normal" in2="shape" result="effect1_innerShadow"/>
</filter>
</defs>
</svg>
