<svg width="1800" height="1800" viewBox="0 0 1800 1800" fill="none" xmlns="http://www.w3.org/2000/svg">
<path d="M1800 900C1800 1397.06 1397.06 1800 900 1800C402.944 1800 0 1397.06 0 900C0 402.944 402.944 0 900 0C1397.06 0 1800 402.944 1800 900Z" fill="#BCB5B5" fill-opacity="0.1"/>
<path d="M1596 900C1596 1286.6 1282.6 1600 896 1600C509.401 1600 196 1286.6 196 900C196 513.401 509.401 200 896 200C1282.6 200 1596 513.401 1596 900Z" fill="#BCB5B5" fill-opacity="0.08"/>
<path d="M896 1400C1172.14 1400 1396 1176.14 1396 900C1396 623.858 1172.14 400 896 400C619.858 400 396 623.858 396 900C396 1176.14 619.858 1400 896 1400Z" fill="#C4C4C4" fill-opacity="0.08"/>
<g filter="url(#filter0_i)">
<path d="M916 1136C1049.35 1136 1166 1028.94 1166 886C1166 743.059 1049.35 636 916 636C782.654 636 666 743.059 666 886C666 1028.94 782.654 1136 916 1136Z" stroke="#DDA20B" stroke-width="25"/>
</g>
<path d="M916.999 1129C1051.21 1129 1160 1020.21 1160 886C1160 751.796 1051.21 643 916.999 643C782.794 643 674 751.796 674 886C674 1020.21 782.794 1129 916.999 1129Z" fill="white"/>
<path d="M846.778 875.529L882.876 827.369C867.872 824.995 840.321 824.471 817.756 845.883C782.183 879.642 767.774 952.568 764.77 970.223L855.179 1056.02C871.457 1054.69 943.516 1045.56 1012.96 979.676C1013.69 978.252 1030.61 966.39 1016.77 953.268C1010.17 947.005 999.252 947.122 992.508 953.52C989.073 956.786 983.736 956.824 980.376 953.635C977.012 950.451 977.063 945.378 980.496 942.122L1005.03 918.836C1017.5 907.004 1005.75 887.043 988.341 891.84L968.26 908.155C964.589 911.189 959.132 910.669 956.12 907.354C953.004 903.937 953.671 898.752 957.217 895.836C1027.38 837.417 1017.14 844.446 1062.29 804.295C1079.15 790.966 1057.93 767.399 1041.31 780.887L932.102 874.088C928.927 876.651 924.059 876.703 920.935 873.971C917.325 871.014 917.244 866.748 919.602 863.387L995.774 751.009C1006.91 736.703 984.996 720.806 973.268 735.232L860.644 884.714C857.931 888.432 852.453 889.295 848.726 886.689C847.817 886.088 847.043 885.32 846.449 884.428C845.856 883.538 845.461 882.543 845.278 881.5C845.098 880.457 845.14 879.394 845.398 878.369C845.654 877.345 846.128 876.378 846.787 875.529H846.778Z" fill="#3B4262"/>
<defs>
<filter id="filter0_i" x="653.5" y="619.5" width="525" height="529" filterUnits="userSpaceOnUse" color-interpolation-filters="sRGB">
<feFlood flood-opacity="0" result="BackgroundImageFix"/>
<feBlend mode="normal" in="SourceGraphic" in2="BackgroundImageFix" result="shape"/>
<feColorMatrix in="SourceAlpha" type="matrix" values="0 0 0 0 0 0 0 0 0 0 0 0 0 0 0 0 0 0 127 0" result="hardAlpha"/>
<feOffset dy="-10"/>
<feGaussianBlur stdDeviation="2"/>
<feComposite in2="hardAlpha" operator="arithmetic" k2="-1" k3="1"/>
<feColorMatrix type="matrix" values="0 0 0 0 0 0 0 0 0 0 0 0 0 0 0 0 0 0 0.25 0"/>
<feBlend mode="normal" in2="shape" result="effect1_innerShadow"/>
</filter>
</defs>
</svg>
