<svg width="1800" height="1800" viewBox="0 0 1800 1800" fill="none" xmlns="http://www.w3.org/2000/svg">
<path d="M1800 900C1800 1397.06 1397.06 1800 900 1800C402.944 1800 0 1397.06 0 900C0 402.944 402.944 0 900 0C1397.06 0 1800 402.944 1800 900Z" fill="#BCB5B5" fill-opacity="0.1"/>
<path d="M1596 900C1596 1286.6 1282.6 1600 896 1600C509.401 1600 196 1286.6 196 900C196 513.401 509.401 200 896 200C1282.6 200 1596 513.401 1596 900Z" fill="#BCB5B5" fill-opacity="0.08"/>
<path d="M896 1400C1172.14 1400 1396 1176.14 1396 900C1396 623.858 1172.14 400 896 400C619.858 400 396 623.858 396 900C396 1176.14 619.858 1400 896 1400Z" fill="#C4C4C4" fill-opacity="0.08"/>
<g filter="url(#filter0_i)">
<path d="M916 1136C1049.35 1136 1166 1028.94 1166 886C1166 743.059 1049.35 636 916 636C782.654 636 666 743.059 666 886C666 1028.94 782.654 1136 916 1136Z" stroke="#1D8BC8" stroke-width="25"/>
</g>
<path d="M915.999 1129C1050.21 1129 1159 1020.21 1159 886C1159 751.796 1050.21 643 915.999 643C781.794 643 673 751.796 673 886C673 1020.21 781.794 1129 915.999 1129Z" fill="white"/>
<path d="M1039.92 900.655L1034.97 896.135C1023.15 885.331 1003.82 882.986 989.392 890.559L958.565 906.646L964.988 777.791C964.988 766.991 955.368 758.198 943.526 758.198C940.97 758.198 938.508 758.613 936.228 759.365L936.996 752.45C936.996 741.525 927.222 732.64 915.222 732.64C904.12 732.64 894.813 740.239 893.64 749.986L873.856 859.11C873.602 860.592 870.783 860.441 870.484 859.504L847.12 772.02C845.85 768.043 843.205 764.543 839.585 762.05C835.969 759.559 831.565 758.205 827.043 758.198C820.632 758.198 814.675 760.831 810.687 765.428C808.726 767.671 807.35 770.297 806.663 773.106C805.978 775.917 806 778.829 806.73 781.626L811.268 799.243C808.679 799.059 806.073 799.358 803.616 800.126C799.154 801.475 795.36 804.234 792.915 807.917C790.474 811.592 789.539 815.95 790.278 820.205L804.026 892.392C804.026 920.865 809.492 941.946 814.085 954.601C816.705 961.883 818.034 969.5 818.022 977.169C818.022 983.921 816.996 990.642 814.961 997.131L804.299 1031.22C803.701 1033.15 804.124 1035.22 805.435 1036.82C806.764 1038.42 808.825 1039.36 811.022 1039.36H936.988C938.097 1039.36 939.189 1039.13 940.175 1038.66C941.163 1038.21 942.016 1037.54 942.663 1036.71C943.313 1035.89 943.74 1034.94 943.911 1033.94C944.081 1032.94 943.988 1031.91 943.64 1030.95C943.565 1030.79 937.717 1014.28 943.256 991.836C950.278 986.631 974.872 968.369 983.701 961.009C998.299 948.831 1038.29 911.219 1039.99 909.617C1041.27 908.417 1041.98 906.802 1041.97 905.122C1041.96 903.441 1041.22 901.836 1039.92 900.651V900.655Z" fill="#3B4262"/>
<defs>
<filter id="filter0_i" x="653.5" y="619.5" width="525" height="529" filterUnits="userSpaceOnUse" color-interpolation-filters="sRGB">
<feFlood flood-opacity="0" result="BackgroundImageFix"/>
<feBlend mode="normal" in="SourceGraphic" in2="BackgroundImageFix" result="shape"/>
<feColorMatrix in="SourceAlpha" type="matrix" values="0 0 0 0 0 0 0 0 0 0 0 0 0 0 0 0 0 0 127 0" result="hardAlpha"/>
<feOffset dy="-10"/>
<feGaussianBlur stdDeviation="2"/>
<feComposite in2="hardAlpha" operator="arithmetic" k2="-1" k3="1"/>
<feColorMatrix type="matrix" values="0 0 0 0 0 0 0 0 0 0 0 0 0 0 0 0 0 0 0.25 0"/>
<feBlend mode="normal" in2="shape" result="effect1_innerShadow"/>
</filter>
</defs>
</svg>
