<svg width="209" height="196" viewBox="0 0 209 196" fill="none" xmlns="http://www.w3.org/2000/svg">
<g id="layer1" filter="url(#filter0_i)">
<g id="handborder" opacity="0.59136">
<g filter="url(#filter1_i)">
<path d="M104.613 179.093C153.148 179.093 192.492 142.735 192.492 97.8859C192.492 53.0364 153.148 16.6786 104.613 16.6786C56.0794 16.6786 16.7348 53.0364 16.7348 97.8859C16.7348 142.735 56.0794 179.093 104.613 179.093Z" fill="#E3FFFF"/>
</g>
<path d="M104.613 179.093C153.148 179.093 192.492 142.735 192.492 97.8859C192.492 53.0364 153.148 16.6786 104.613 16.6786C56.0794 16.6786 16.7348 53.0364 16.7348 97.8859C16.7348 142.735 56.0794 179.093 104.613 179.093Z" stroke="#010F7C" stroke-width="32.9423" stroke-linejoin="round"/>
</g>
<path id="handfig" d="M134.453 75.3445C133.851 75.1566 133.205 75.0742 132.559 75.1028C131.683 75.1517 130.977 75.4336 130.558 75.8962C128.092 78.6401 126.07 83.8216 124.441 87.9863C123.693 89.9112 122.688 92.488 121.962 93.711C121.204 90.2847 122.061 77.7332 122.393 72.8996L122.398 72.8216C122.628 69.4637 122.659 68.8741 122.61 68.6153C122.244 66.7734 121.314 65.5638 119.844 65.0231C118.359 64.4738 116.431 64.7177 114.353 65.7103C113.312 66.2107 113.023 67.9269 112.129 75.7071L112.126 75.7394C111.634 80.014 110.5 89.857 109.106 91.4975C107.533 89.2027 105.368 76.1727 104.433 70.5323C103.78 66.5824 103.399 64.3144 103.142 63.6297C102.604 62.1942 100.329 60.9736 98.0763 60.9053C96.2007 60.8319 94.6633 61.5888 93.9285 62.9046C92.554 64.1192 93.0398 68.1435 94.5588 77.6765C95.2814 82.2147 96.7726 91.5854 95.8348 92.6375C93.9607 92.4751 90.7461 86.6053 86.28 75.184C85.0255 71.986 84.638 71.0242 84.2537 70.6031C83.4942 69.1359 80.9145 68.0044 78.6023 68.1325C78.4077 68.1433 78.2142 68.1634 78.0227 68.1925C76.8127 68.383 74.0501 69.2679 74.6404 73.3508C76.27 79.0108 78.0427 83.1658 79.7614 87.1999L79.7969 87.2806C80.8254 89.6974 81.7986 91.9799 82.7025 94.5127C84.8318 100.494 84.0032 104.204 83.9939 104.247C83.9232 104.628 83.7741 104.861 83.5512 104.943C83.4563 104.975 83.3547 104.994 83.2514 104.998C82.5749 105.035 81.5633 104.68 81.0422 104.449C79.8491 102.64 73.9148 94.0196 68.5371 92.8234L68.3433 92.7773L68.1481 92.7911C66.1757 92.9387 64.7259 93.5308 63.8388 94.55C62.4337 96.1612 63.0163 98.2143 63.1562 98.6268L63.2362 98.7735C63.2792 98.8358 67.5931 105.078 68.2603 107.982C68.8353 110.472 71.8132 113.169 74.2085 115.337L74.3069 115.426C75.0879 116.134 75.7612 116.748 76.2932 117.316C83.2406 123.069 94.2268 127.907 94.3159 127.947C95.6873 128.749 96.4483 129.526 96.5298 130.193C96.5673 130.446 96.479 130.7 96.2838 130.901L96.0455 131.099L97.5644 132.271L126.549 130.655L127.785 126.158C131.607 113.461 130.809 102.634 130.795 102.564C130.81 102.165 131.88 98.3122 132.741 95.1996L132.768 95.1202C134.485 88.9196 136.619 81.2053 137.029 78.2722C137.207 77.0174 136.196 75.8651 134.454 75.3415L134.453 75.3445Z" fill="#3B4262"/>
</g>
<defs>
<filter id="filter0_i" x="0.263611" y="0.207489" width="208.7" height="195.357" filterUnits="userSpaceOnUse" color-interpolation-filters="sRGB">
<feFlood flood-opacity="0" result="BackgroundImageFix"/>
<feBlend mode="normal" in="SourceGraphic" in2="BackgroundImageFix" result="shape"/>
<feColorMatrix in="SourceAlpha" type="matrix" values="0 0 0 0 0 0 0 0 0 0 0 0 0 0 0 0 0 0 127 0" result="hardAlpha"/>
<feOffset dy="-10"/>
<feComposite in2="hardAlpha" operator="arithmetic" k2="-1" k3="1"/>
<feColorMatrix type="matrix" values="0 0 0 0 0 0 0 0 0 0 0 0 0 0 0 0 0 0 0.25 0"/>
<feBlend mode="normal" in2="shape" result="effect1_innerShadow"/>
</filter>
<filter id="filter1_i" x="0.263611" y="-3.79251" width="208.7" height="199.357" filterUnits="userSpaceOnUse" color-interpolation-filters="sRGB">
<feFlood flood-opacity="0" result="BackgroundImageFix"/>
<feBlend mode="normal" in="SourceGraphic" in2="BackgroundImageFix" result="shape"/>
<feColorMatrix in="SourceAlpha" type="matrix" values="0 0 0 0 0 0 0 0 0 0 0 0 0 0 0 0 0 0 127 0" result="hardAlpha"/>
<feOffset dy="-10"/>
<feGaussianBlur stdDeviation="2"/>
<feComposite in2="hardAlpha" operator="arithmetic" k2="-1" k3="1"/>
<feColorMatrix type="matrix" values="0 0 0 0 0 0 0 0 0 0 0 0 0 0 0 0 0 0 0.25 0"/>
<feBlend mode="normal" in2="shape" result="effect1_innerShadow"/>
</filter>
</defs>
</svg>
