<svg width="209" height="196" viewBox="0 0 209 196" fill="none" xmlns="http://www.w3.org/2000/svg">
<g id="layer1">
<g id="rockBorder" opacity="0.59136">
<g filter="url(#filter0_i)">
<path d="M104.613 179.093C153.148 179.093 192.492 142.735 192.492 97.886C192.492 53.0364 153.148 16.6786 104.613 16.6786C56.0794 16.6786 16.7347 53.0364 16.7347 97.886C16.7347 142.735 56.0794 179.093 104.613 179.093Z" fill="#E3FFFF"/>
</g>
<path d="M104.613 179.093C153.148 179.093 192.492 142.735 192.492 97.886C192.492 53.0364 153.148 16.6786 104.613 16.6786C56.0794 16.6786 16.7347 53.0364 16.7347 97.886C16.7347 142.735 56.0794 179.093 104.613 179.093Z" stroke="#F80000" stroke-width="32.9423" stroke-linejoin="round"/>
</g>
<path id="rockFig" d="M139.646 80.75C138.462 68.225 121.696 69.5045 121.696 69.5045C114.62 59.0384 103.565 66.6192 103.565 66.6192C95.071 56.362 84.4233 65.8673 84.4233 65.8673C66.062 64.2057 66.7738 76.799 66.7738 76.799C66.3423 80.803 69.361 93.187 69.361 93.187C66.6373 86.049 60.7308 91.974 60.7308 91.974C53.4651 101.378 58.9328 106.525 58.9328 106.525C68.7617 116.188 89.7066 127.787 89.7066 127.787C97.2912 131.431 94.0825 134.682 94.0825 134.682L139.956 128.323L141.008 121.024C147.983 103.332 139.646 80.75 139.646 80.75Z" fill="#3B4262"/>
</g>
<defs>
<filter id="filter0_i" x="0.26355" y="0.207458" width="208.7" height="195.357" filterUnits="userSpaceOnUse" color-interpolation-filters="sRGB">
<feFlood flood-opacity="0" result="BackgroundImageFix"/>
<feBlend mode="normal" in="SourceGraphic" in2="BackgroundImageFix" result="shape"/>
<feColorMatrix in="SourceAlpha" type="matrix" values="0 0 0 0 0 0 0 0 0 0 0 0 0 0 0 0 0 0 127 0" result="hardAlpha"/>
<feOffset dy="-10"/>
<feComposite in2="hardAlpha" operator="arithmetic" k2="-1" k3="1"/>
<feColorMatrix type="matrix" values="0 0 0 0 0 0 0 0 0 0 0 0 0 0 0 0 0 0 0.25 0"/>
<feBlend mode="normal" in2="shape" result="effect1_innerShadow"/>
</filter>
</defs>
</svg>
