<svg width="210" height="196" viewBox="0 0 210 196" fill="none" xmlns="http://www.w3.org/2000/svg">
<g id="layer1" filter="url(#filter0_i)">
<path id="border" opacity="0.59136" d="M104.879 179.415C153.413 179.415 192.757 143.057 192.757 98.2073C192.757 53.3577 153.413 17 104.879 17C56.3446 17 17 53.3577 17 98.2073C17 143.057 56.3446 179.415 104.879 179.415Z" fill="#E3FFFF" stroke="#7A02A2" stroke-width="32.9423" stroke-linejoin="round"/>
<path id="lizard" d="M119.485 60.7289C123.475 58.3272 127.299 57.8072 130.252 59.2651C136.873 62.5314 135.914 74.6901 133.205 79.9583C131.675 82.9328 128.964 85.1063 125.14 86.4273C123.658 90.9893 121.577 94.9101 118.921 98.1525C120.681 99.5811 122.903 100.362 125.196 100.358H125.307L129.039 96.7775C129.979 95.8768 131.502 95.8756 132.441 96.7775C133.38 97.6781 133.38 99.1408 132.441 100.041L132.111 100.359H132.863C134.191 100.359 135.268 101.393 135.268 102.668C135.268 103.942 134.191 104.976 132.863 104.976H132.111L132.441 105.293C133.38 106.194 133.38 107.656 132.441 108.558C131.972 109.009 131.356 109.234 130.741 109.234C130.125 109.234 129.509 109.009 129.04 108.558L125.306 104.976H125.195C121.693 104.981 118.307 103.764 115.651 101.545C115.139 101.998 114.61 102.432 114.065 102.846C109.454 106.352 103.817 108.39 97.228 108.949C98.0679 111.409 98.2142 114.043 97.6518 116.576L97.627 116.684L100.5 121.08C100.847 121.611 100.966 122.254 100.83 122.87C100.693 123.486 100.313 124.025 99.7719 124.371C99.3837 124.618 98.9299 124.75 98.4659 124.751C98.0584 124.75 97.6576 124.65 97.3009 124.458C96.9442 124.267 96.6432 123.991 96.426 123.655L96.1715 123.266L96.0109 123.993C95.8968 124.521 95.6 124.995 95.1699 125.337C94.7399 125.678 94.2025 125.866 93.6473 125.869C93.4731 125.869 93.2996 125.85 93.1296 125.813C92.4987 125.674 91.9501 125.298 91.6034 124.767C91.2567 124.236 91.14 123.593 91.2787 122.979L91.4394 122.253L91.044 122.504C90.7765 122.673 90.4772 122.788 90.1633 122.844C89.8495 122.899 89.5274 122.893 89.2159 122.827C88.9044 122.76 88.6096 122.634 88.3488 122.455C88.088 122.277 87.8664 122.049 87.6968 121.787C87.3498 121.255 87.2318 120.612 87.3681 119.997C87.5045 119.381 87.8844 118.842 88.4258 118.496L92.8948 115.671L92.9196 115.563C93.4059 113.37 93.0946 111.08 92.0386 109.085C90.0555 109.029 88.077 108.868 86.1117 108.605C80.3243 107.844 77.0415 110.326 76.1729 111.104C69.3551 117.22 68.0355 128.027 68.0231 128.136C67.9564 128.715 67.6727 129.25 67.2261 129.639C66.7795 130.029 66.2012 130.244 65.6015 130.246C65.2038 130.245 64.8123 130.15 64.4612 129.969C64.1101 129.787 63.8102 129.525 63.5875 129.205C63.48 129.048 60.9138 125.321 59.7882 120.06C58.2598 112.915 60.0822 106.362 65.0591 101.107C68.0098 98.0042 71.7255 95.6835 75.8553 94.3641L75.3525 94.4912C74.0465 93.9 72.6232 93.5938 71.1825 93.5941H71.0713L67.3251 97.1763C66.8695 97.6111 66.256 97.854 65.6175 97.8524C64.9998 97.8524 64.382 97.6268 63.91 97.1763C63.686 96.9638 63.508 96.7098 63.3865 96.4295C63.265 96.1491 63.2024 95.8479 63.2024 95.5437C63.2024 95.2395 63.265 94.9383 63.3865 94.658C63.508 94.3776 63.686 94.1237 63.91 93.9112L64.2411 93.5939H63.4874C62.153 93.5939 61.0732 92.5612 61.0732 91.2859C61.0732 90.0105 62.1543 88.9778 63.4874 88.9778H64.2411L63.91 88.6607C63.6858 88.4481 63.5077 88.1941 63.3861 87.9136C63.2644 87.6332 63.2018 87.3319 63.2018 87.0275C63.2018 86.7231 63.2644 86.4218 63.3861 86.1413C63.5077 85.8609 63.6858 85.6069 63.91 85.3943C64.8527 84.4937 66.3811 84.4937 67.3251 85.3943L71.0713 88.9765H71.1825C73.186 88.9723 75.1692 89.3672 77.0097 90.1367C78.8502 90.9063 80.509 92.0342 81.8836 93.4509L81.6155 93.1831C83.8167 92.9698 86.0361 93.0081 88.2282 93.297C94.3393 94.1015 99.3358 93.2743 103.194 90.8328C101.02 88.215 99.8382 84.9504 99.8461 81.5862V81.4759L96.1543 77.77C95.7069 77.3155 95.4572 76.7107 95.4572 76.0817C95.4572 75.4526 95.7069 74.8478 96.1543 74.3933C96.3717 74.1722 96.633 73.9963 96.9223 73.8761C97.2117 73.7559 97.5231 73.6939 97.8377 73.6939C98.1524 73.6939 98.4638 73.7559 98.7531 73.8761C99.0424 73.9963 99.3037 74.1722 99.5212 74.3933L99.8486 74.721V73.9752C99.8486 72.6555 100.914 71.5867 102.228 71.5867C103.543 71.5867 104.609 72.6555 104.609 73.9752V74.7197L104.937 74.393C105.154 74.1719 105.415 73.996 105.705 73.8758C105.994 73.7556 106.305 73.6936 106.62 73.6936C106.935 73.6936 107.246 73.7556 107.535 73.8758C107.825 73.996 108.086 74.1719 108.303 74.393C109.719 75.8136 108.699 77.3747 108.303 77.7697L104.609 81.4756V81.5849C104.609 83.8401 105.394 85.9957 106.797 87.7069C108.542 85.6822 109.913 83.134 110.906 80.0694C110.18 78.118 109.052 73.4971 111.929 68.2566C113.436 65.5126 116.332 62.6281 119.486 60.7284L119.485 60.7289Z" fill="#3B4262"/>
</g>
<defs>
<filter id="filter0_i" x="0.528854" y="0.528854" width="208.7" height="195.357" filterUnits="userSpaceOnUse" color-interpolation-filters="sRGB">
<feFlood flood-opacity="0" result="BackgroundImageFix"/>
<feBlend mode="normal" in="SourceGraphic" in2="BackgroundImageFix" result="shape"/>
<feColorMatrix in="SourceAlpha" type="matrix" values="0 0 0 0 0 0 0 0 0 0 0 0 0 0 0 0 0 0 127 0" result="hardAlpha"/>
<feOffset dy="-10"/>
<feComposite in2="hardAlpha" operator="arithmetic" k2="-1" k3="1"/>
<feColorMatrix type="matrix" values="0 0 0 0 0.196667 0 0 0 0 0 0 0 0 0 0.245833 0 0 0 0.25 0"/>
<feBlend mode="normal" in2="shape" result="effect1_innerShadow"/>
</filter>
</defs>
</svg>
