<svg width="1440" height="1028" viewBox="0 0 1440 1028" fill="none" xmlns="http://www.w3.org/2000/svg">
<g id="lizard 1">
<g id="separate 1 1">
<g id="lizard">
<g id="lizard-outline" filter="url(#filter0_i)">
<path id="Vector_2" d="M720 625C785.6 625 843 577.466 843 514C843 450.534 785.6 403 720 403C654.4 403 597 450.534 597 514C597 577.466 654.4 625 720 625Z" stroke="#DD0BAE" stroke-width="25"/>
</g>
<path id="lizard-container" d="M720.953 611.008C782.568 611.008 832.512 567.159 832.512 513.067C832.512 458.976 782.568 415.126 720.953 415.126C659.339 415.126 609.395 458.976 609.395 513.067C609.395 567.159 659.339 611.008 720.953 611.008Z" fill="white"/>
<path id="lizard-icon" d="M757.358 455.465C764.051 451.282 770.478 450.377 775.455 452.916C786.573 458.603 784.971 479.771 780.413 488.944C777.839 494.123 773.281 497.906 766.854 500.206C764.356 508.15 760.866 514.976 756.404 520.621C759.36 523.108 763.098 524.468 766.95 524.462H767.14L773.414 518.227C774.997 516.658 777.553 516.657 779.135 518.227C780.718 519.794 780.718 522.341 779.135 523.91L778.582 524.462H779.841C782.072 524.462 783.884 526.262 783.884 528.482C783.884 530.7 782.072 532.501 779.841 532.501H778.582L779.135 533.053C780.718 534.62 780.718 537.166 779.135 538.737C778.334 539.521 777.305 539.914 776.275 539.914C775.245 539.914 774.196 539.521 773.414 538.737L767.14 532.501H766.95C761.057 532.508 755.374 530.389 750.912 526.527C750.035 527.314 749.158 528.07 748.242 528.792C740.481 534.896 731.022 538.444 719.943 539.416C721.354 543.699 721.602 548.285 720.648 552.697L720.61 552.885L725.435 560.538C726.026 561.463 726.217 562.583 725.988 563.655C725.759 564.726 725.13 565.666 724.214 566.267C723.566 566.698 722.803 566.927 722.022 566.929C721.335 566.927 720.668 566.752 720.057 566.42C719.466 566.086 718.951 565.605 718.589 565.023L718.169 564.344L717.883 565.608C717.693 566.528 717.197 567.355 716.472 567.948C715.748 568.543 714.851 568.869 713.917 568.875C713.631 568.875 713.326 568.843 713.04 568.778C711.991 568.536 711.056 567.881 710.484 566.957C709.893 566.032 709.702 564.914 709.931 563.846L710.198 562.581L709.55 563.017C709.092 563.31 708.596 563.512 708.062 563.609C707.528 563.706 706.994 563.694 706.461 563.579C705.946 563.463 705.45 563.243 705.011 562.931C704.573 562.622 704.191 562.226 703.905 561.769C703.333 560.842 703.123 559.723 703.352 558.652C703.581 557.579 704.229 556.643 705.145 556.04L712.658 551.121L712.696 550.932C713.516 547.113 712.982 543.129 711.209 539.655C707.872 539.556 704.554 539.276 701.255 538.819C691.529 537.493 685.999 541.815 684.549 543.17C673.088 553.818 670.857 572.632 670.838 572.823C670.724 573.832 670.247 574.763 669.503 575.44C668.76 576.117 667.787 576.494 666.776 576.496C666.109 576.496 665.441 576.33 664.85 576.013C664.259 575.697 663.763 575.24 663.382 574.682C663.21 574.412 658.9 567.922 656.993 558.762C654.438 546.322 657.489 534.913 665.861 525.764C670.819 520.361 677.074 516.321 684.015 514.024L683.157 514.246C680.964 513.216 678.581 512.683 676.159 512.685H675.968L669.675 518.921C668.893 519.679 667.863 520.1 666.795 520.098C665.766 520.098 664.717 519.705 663.935 518.921C663.553 518.55 663.248 518.108 663.058 517.621C662.848 517.132 662.733 516.608 662.733 516.078C662.733 515.548 662.848 515.024 663.058 514.535C663.248 514.048 663.553 513.606 663.935 513.235L664.488 512.685H663.21C660.979 512.685 659.167 510.886 659.167 508.666C659.167 506.445 660.979 504.648 663.21 504.648H664.488L663.935 504.096C663.553 503.725 663.248 503.282 663.058 502.796C662.848 502.307 662.733 501.783 662.733 501.253C662.733 500.721 662.848 500.197 663.058 499.71C663.248 499.221 663.553 498.779 663.935 498.408C665.518 496.841 668.073 496.841 669.675 498.408L675.968 504.644H676.159C679.515 504.639 682.852 505.325 685.941 506.665C689.05 508.004 691.834 509.969 694.141 512.435L693.684 511.968C697.402 511.597 701.121 511.664 704.801 512.168C715.08 513.569 723.49 512.131 729.973 507.877C726.312 503.32 724.329 497.635 724.329 491.779V491.585L718.131 485.134C717.388 484.343 716.968 483.289 716.968 482.194C716.968 481.099 717.388 480.047 718.131 479.254C718.494 478.87 718.932 478.564 719.428 478.355C719.905 478.146 720.439 478.038 720.954 478.038C721.487 478.038 722.022 478.146 722.498 478.355C722.994 478.564 723.433 478.87 723.795 479.254L724.348 479.825V478.527C724.348 476.23 726.14 474.368 728.334 474.368C730.546 474.368 732.338 476.23 732.338 478.527V479.823L732.891 479.254C733.254 478.87 733.692 478.564 734.188 478.355C734.665 478.146 735.199 478.038 735.733 478.038C736.247 478.038 736.782 478.146 737.258 478.355C737.754 478.564 738.193 478.87 738.555 479.254C740.939 481.728 739.222 484.446 738.555 485.134L732.338 491.585V491.776C732.338 495.703 733.673 499.456 736.019 502.435C738.955 498.91 741.263 494.473 742.922 489.138C741.701 485.741 739.814 477.695 744.657 468.572C747.175 463.794 752.056 458.772 757.358 455.465Z" fill="#3B4262"/>
</g>
</g>
</g>
<defs>
<filter id="filter0_i" x="584.5" y="386.5" width="271" height="251" filterUnits="userSpaceOnUse" color-interpolation-filters="sRGB">
<feFlood flood-opacity="0" result="BackgroundImageFix"/>
<feBlend mode="normal" in="SourceGraphic" in2="BackgroundImageFix" result="shape"/>
<feColorMatrix in="SourceAlpha" type="matrix" values="0 0 0 0 0 0 0 0 0 0 0 0 0 0 0 0 0 0 127 0" result="hardAlpha"/>
<feOffset dy="-10"/>
<feGaussianBlur stdDeviation="2"/>
<feComposite in2="hardAlpha" operator="arithmetic" k2="-1" k3="1"/>
<feColorMatrix type="matrix" values="0 0 0 0 0 0 0 0 0 0 0 0 0 0 0 0 0 0 0.25 0"/>
<feBlend mode="normal" in2="shape" result="effect1_innerShadow"/>
</filter>
</defs>
</svg>
