<svg width="1440" height="1028" viewBox="0 0 1440 1028" fill="none" xmlns="http://www.w3.org/2000/svg">
<g id="paper 1">
<g id="separate 1 1">
<g id="paper">
<g id="paper-outline" filter="url(#filter0_i)">
<path id="Vector" d="M720 625C785.6 625 843 577.466 843 514C843 450.534 785.6 403 720 403C654.4 403 597 450.534 597 514C597 577.466 654.4 625 720 625Z" stroke="#280BDD" stroke-width="25"/>
</g>
<path id="paper-container" d="M720.953 611.008C782.568 611.008 832.512 567.159 832.512 513.067C832.512 458.976 782.568 415.126 720.953 415.126C659.339 415.126 609.395 458.976 609.395 513.067C609.395 567.159 659.339 611.008 720.953 611.008Z" fill="white"/>
<path id="paper-icon" d="M784.799 473.087C783.674 472.734 782.492 472.579 781.29 472.633C779.669 472.725 778.353 473.255 777.591 474.126C773.014 479.29 769.276 489.041 766.244 496.88C764.871 500.501 763.002 505.351 761.667 507.653C760.256 501.204 761.839 477.583 762.449 468.486L762.468 468.339C762.888 462.02 762.945 460.91 762.869 460.423C762.182 456.957 760.466 454.681 757.739 453.663C754.993 452.629 751.408 453.088 747.575 454.955C745.63 455.898 745.096 459.127 743.456 473.769L743.437 473.835C742.541 481.879 740.424 500.404 737.849 503.489C734.932 499.173 730.927 474.65 729.192 464.035C727.99 456.601 727.285 452.332 726.808 451.043C725.797 448.342 721.583 446.046 717.426 445.917C713.955 445.779 711.094 447.202 709.74 449.68C707.185 451.965 708.1 459.539 710.904 477.48C712.239 486.021 715.004 503.656 713.268 505.637C709.798 505.331 703.848 494.283 695.572 472.788C693.245 466.77 692.539 464.96 691.815 464.167C690.404 461.406 685.636 459.276 681.346 459.519C680.983 459.539 680.64 459.576 680.278 459.63C678.047 459.989 672.917 461.655 674.023 469.339C677.036 479.991 680.316 487.81 683.5 495.402L683.558 495.553C685.465 500.102 687.276 504.398 688.954 509.164C692.883 520.421 691.357 527.404 691.338 527.484C691.205 528.201 690.938 528.639 690.518 528.794C690.347 528.855 690.156 528.889 689.965 528.896C688.707 528.965 686.838 528.299 685.865 527.863C683.653 524.458 672.669 508.235 662.714 505.986L662.352 505.9L661.99 505.928C658.328 506.206 655.659 507.319 654 509.237C651.406 512.271 652.493 516.134 652.741 516.91L652.894 517.186C652.97 517.304 660.96 529.051 662.199 534.515C663.267 539.202 668.779 544.278 673.222 548.358L673.394 548.526C674.843 549.858 676.082 551.014 677.074 552.081C689.946 562.909 710.293 572.015 710.446 572.091C713.001 573.6 714.413 575.061 714.565 576.317C714.622 576.792 714.47 577.27 714.108 577.649L713.65 578.022L716.472 580.227L770.154 577.186L772.442 568.722C779.517 544.828 778.048 524.453 778.029 524.318C778.048 523.568 780.032 516.317 781.633 510.459L781.672 510.31C784.856 498.641 788.804 484.123 789.566 478.603C789.891 476.241 788.022 474.074 784.799 473.087Z" fill="#3B4262"/>
</g>
</g>
</g>
<defs>
<filter id="filter0_i" x="584.5" y="386.5" width="271" height="251" filterUnits="userSpaceOnUse" color-interpolation-filters="sRGB">
<feFlood flood-opacity="0" result="BackgroundImageFix"/>
<feBlend mode="normal" in="SourceGraphic" in2="BackgroundImageFix" result="shape"/>
<feColorMatrix in="SourceAlpha" type="matrix" values="0 0 0 0 0 0 0 0 0 0 0 0 0 0 0 0 0 0 127 0" result="hardAlpha"/>
<feOffset dy="-10"/>
<feGaussianBlur stdDeviation="2"/>
<feComposite in2="hardAlpha" operator="arithmetic" k2="-1" k3="1"/>
<feColorMatrix type="matrix" values="0 0 0 0 0 0 0 0 0 0 0 0 0 0 0 0 0 0 0.25 0"/>
<feBlend mode="normal" in2="shape" result="effect1_innerShadow"/>
</filter>
</defs>
</svg>
