<svg width="1440" height="1028" viewBox="0 0 1440 1028" fill="none" xmlns="http://www.w3.org/2000/svg">
<g id="spock 1">
<g id="separate 1 1">
<g id="spock">
<g id="spock-outline" filter="url(#filter0_i)">
<path id="Vector_4" d="M720 625C785.606 625 843 577.466 843 514C843 450.534 785.606 403 720 403C654.394 403 597 450.534 597 514C597 577.466 654.394 625 720 625Z" stroke="#1D8BC8" stroke-width="25"/>
</g>
<path id="spock-container" d="M720.953 611.008C782.566 611.008 832.512 567.159 832.512 513.067C832.512 458.976 782.566 415.126 720.953 415.126C659.341 415.126 609.395 458.976 609.395 513.067C609.395 567.159 659.341 611.008 720.953 611.008Z" fill="white"/>
<path id="spock-icon" d="M780.968 520.507L778.535 518.5C772.718 513.703 763.208 512.662 756.109 516.024L740.942 523.167L744.102 465.955C744.102 461.16 739.369 457.256 733.543 457.256C732.285 457.256 731.074 457.44 729.952 457.774L730.33 454.704C730.33 449.853 725.521 445.908 719.617 445.908C714.155 445.908 709.576 449.282 708.999 453.61L699.265 502.061C699.14 502.719 697.753 502.652 697.606 502.236L686.111 463.393C685.486 461.627 684.185 460.073 682.404 458.966C680.625 457.86 678.458 457.259 676.233 457.256C673.079 457.256 670.148 458.425 668.186 460.466C667.221 461.462 666.544 462.628 666.206 463.875C665.869 465.123 665.88 466.416 666.239 467.658L668.472 475.48C667.198 475.398 665.916 475.531 664.707 475.872C662.512 476.471 660.645 477.696 659.442 479.331C658.241 480.963 657.781 482.898 658.145 484.787L664.909 516.838C664.909 529.48 667.598 538.84 669.858 544.459C671.147 547.692 671.801 551.074 671.795 554.479C671.795 557.477 671.29 560.461 670.289 563.342L665.043 578.477C664.749 579.333 664.957 580.253 665.602 580.964C666.256 581.675 667.27 582.092 668.351 582.092H730.326C730.872 582.094 731.409 581.988 731.894 581.783C732.38 581.579 732.8 581.283 733.118 580.917C733.438 580.553 733.648 580.13 733.732 579.686C733.816 579.24 733.77 578.785 733.599 578.356C733.562 578.285 730.685 570.957 733.41 560.991C736.865 558.68 748.965 550.572 753.309 547.304C760.491 541.897 780.167 525.197 781.002 524.486C781.634 523.953 781.982 523.236 781.977 522.49C781.971 521.744 781.609 521.031 780.968 520.505V520.507Z" fill="#3B4262"/>
</g>
</g>
</g>
<defs>
<filter id="filter0_i" x="584.5" y="386.5" width="271" height="251" filterUnits="userSpaceOnUse" color-interpolation-filters="sRGB">
<feFlood flood-opacity="0" result="BackgroundImageFix"/>
<feBlend mode="normal" in="SourceGraphic" in2="BackgroundImageFix" result="shape"/>
<feColorMatrix in="SourceAlpha" type="matrix" values="0 0 0 0 0 0 0 0 0 0 0 0 0 0 0 0 0 0 127 0" result="hardAlpha"/>
<feOffset dy="-10"/>
<feGaussianBlur stdDeviation="2"/>
<feComposite in2="hardAlpha" operator="arithmetic" k2="-1" k3="1"/>
<feColorMatrix type="matrix" values="0 0 0 0 0 0 0 0 0 0 0 0 0 0 0 0 0 0 0.25 0"/>
<feBlend mode="normal" in2="shape" result="effect1_innerShadow"/>
</filter>
</defs>
</svg>
