<svg width="1440" height="1028" viewBox="0 0 1440 1028" fill="none" xmlns="http://www.w3.org/2000/svg">
<g id="stone 1">
<g id="separate 1 1">
<g id="stone">
<g id="stone-outline" filter="url(#filter0_i)">
<path id="Vector_3" d="M720 625C785.606 625 843 577.466 843 514C843 450.534 785.606 403 720 403C654.394 403 597 450.534 597 514C597 577.466 654.394 625 720 625Z" stroke="#DD0B0B" stroke-width="25"/>
</g>
<path id="stone-container" d="M720.953 611.009C782.566 611.009 832.512 567.159 832.512 513.067C832.512 458.976 782.566 415.126 720.953 415.126C659.341 415.126 609.395 458.976 609.395 513.067C609.395 567.159 659.341 611.009 720.953 611.009Z" fill="white"/>
<path id="stone-icon" d="M770.794 485.243C769.234 465.35 747.142 467.382 747.142 467.382C737.817 450.758 723.249 462.798 723.249 462.798C712.057 446.508 698.028 461.604 698.028 461.604C673.832 458.966 674.77 478.967 674.77 478.967C674.202 485.326 678.18 504.995 678.18 504.995C674.591 493.658 666.807 503.07 666.807 503.07C657.234 518.003 664.438 526.178 664.438 526.178C677.391 541.526 704.988 559.948 704.988 559.948C714.983 565.737 710.755 570.899 710.755 570.899L771.202 560.801L772.591 549.206C781.78 521.108 770.794 485.243 770.794 485.243Z" fill="#3B4262"/>
</g>
</g>
</g>
<defs>
<filter id="filter0_i" x="584.5" y="386.5" width="271" height="251" filterUnits="userSpaceOnUse" color-interpolation-filters="sRGB">
<feFlood flood-opacity="0" result="BackgroundImageFix"/>
<feBlend mode="normal" in="SourceGraphic" in2="BackgroundImageFix" result="shape"/>
<feColorMatrix in="SourceAlpha" type="matrix" values="0 0 0 0 0 0 0 0 0 0 0 0 0 0 0 0 0 0 127 0" result="hardAlpha"/>
<feOffset dy="-10"/>
<feGaussianBlur stdDeviation="2"/>
<feComposite in2="hardAlpha" operator="arithmetic" k2="-1" k3="1"/>
<feColorMatrix type="matrix" values="0 0 0 0 0 0 0 0 0 0 0 0 0 0 0 0 0 0 0.25 0"/>
<feBlend mode="normal" in2="shape" result="effect1_innerShadow"/>
</filter>
</defs>
</svg>
