<svg width="1440" height="1028" viewBox="0 0 1440 1028" fill="none" xmlns="http://www.w3.org/2000/svg">
<g id="lizard 2">
<g id="lizard 1">
<g id="separate 1 1">
<g id="lizard">
<g id="lizard-outline" filter="url(#filter0_i)">
<path id="Vector_2" d="M720 764C853.333 764 970 656.941 970 514C970 371.059 853.333 264 720 264C586.667 264 470 371.059 470 514C470 656.941 586.667 764 720 764Z" stroke="#DD0BAE" stroke-width="25"/>
</g>
<path id="lizard-container" d="M719.999 757C854.21 757 963 648.207 963 514C963 379.796 854.21 271 719.999 271C585.789 271 477 379.796 477 514C477 648.207 585.789 757 719.999 757Z" fill="white"/>
<path id="lizard-icon" d="M795.931 382.164C809.534 372.743 822.598 370.705 832.713 376.423C855.311 389.232 852.055 436.908 842.791 457.568C837.559 469.232 828.295 477.752 815.232 482.932C810.154 500.824 803.061 516.198 793.992 528.912C800 534.513 807.598 537.577 815.427 537.563H815.813L828.565 523.52C831.782 519.986 836.978 519.984 840.193 523.52C843.411 527.05 843.411 532.786 840.193 536.32L839.069 537.563H841.628C846.163 537.563 849.845 541.617 849.845 546.617C849.845 551.613 846.163 555.669 841.628 555.669H839.069L840.193 556.912C843.411 560.441 843.411 566.176 840.193 569.714C838.565 571.48 836.474 572.365 834.38 572.365C832.287 572.365 830.154 571.48 828.565 569.714L815.813 555.669H815.427C803.449 555.685 791.898 550.912 782.829 542.214C781.047 543.986 779.264 545.689 777.402 547.315C761.628 561.063 742.402 569.054 719.884 571.243C722.752 580.89 723.256 591.219 721.317 601.155L721.24 601.579L731.047 618.815C732.248 620.899 732.636 623.421 732.171 625.836C731.705 628.248 730.427 630.365 728.565 631.719C727.248 632.689 725.697 633.205 724.11 633.209C722.713 633.205 721.358 632.811 720.116 632.063C718.915 631.311 717.868 630.227 717.132 628.917L716.278 627.387L715.697 630.234C715.311 632.306 714.303 634.169 712.829 635.504C711.358 636.845 709.535 637.579 707.636 637.592C707.055 637.592 706.435 637.52 705.854 637.374C703.721 636.829 701.821 635.354 700.659 633.272C699.457 631.189 699.069 628.671 699.535 626.266L700.077 623.417L698.76 624.399C697.829 625.059 696.821 625.514 695.736 625.732C694.65 625.95 693.565 625.923 692.482 625.664C691.435 625.403 690.427 624.908 689.534 624.205C688.644 623.509 687.868 622.617 687.287 621.588C686.124 619.5 685.697 616.98 686.163 614.568C686.628 612.151 687.945 610.043 689.807 608.685L705.077 597.606L705.154 597.18C706.821 588.579 705.736 579.606 702.132 571.782C695.35 571.559 688.606 570.928 681.9 569.899C662.132 566.912 650.892 576.646 647.945 579.698C624.65 603.68 620.116 646.054 620.077 646.484C619.846 648.757 618.876 650.854 617.364 652.378C615.854 653.903 613.876 654.752 611.821 654.757C610.465 654.757 609.108 654.383 607.906 653.669C606.705 652.957 605.697 651.928 604.923 650.671C604.573 650.063 595.813 635.446 591.937 614.815C586.744 586.797 592.945 561.101 609.961 540.495C620.039 528.327 632.752 519.227 646.86 514.054L645.116 514.554C640.658 512.234 635.815 511.034 630.892 511.038H630.504L617.713 525.083C616.124 526.791 614.03 527.739 611.86 527.734C609.768 527.734 607.636 526.849 606.047 525.083C605.27 524.248 604.65 523.252 604.264 522.155C603.837 521.054 603.604 519.874 603.604 518.68C603.604 517.486 603.837 516.306 604.264 515.205C604.65 514.108 605.27 513.113 606.047 512.277L607.171 511.038H604.573C600.039 511.038 596.356 506.986 596.356 501.986C596.356 496.984 600.039 492.937 604.573 492.937H607.171L606.047 491.694C605.27 490.858 604.65 489.86 604.264 488.766C603.837 487.664 603.604 486.484 603.604 485.291C603.604 484.092 603.837 482.912 604.264 481.815C604.65 480.714 605.27 479.718 606.047 478.883C609.264 475.354 614.457 475.354 617.713 478.883L630.504 492.928H630.892C637.713 492.917 644.496 494.462 650.774 497.48C657.093 500.495 662.752 504.921 667.441 510.475L666.512 509.423C674.069 508.588 681.628 508.739 689.108 509.874C710 513.029 727.094 509.791 740.27 500.209C732.829 489.946 728.799 477.142 728.799 463.953V463.516L716.201 448.986C714.691 447.205 713.837 444.831 713.837 442.365C713.837 439.899 714.691 437.529 716.201 435.743C716.939 434.878 717.829 434.189 718.837 433.718C719.807 433.248 720.892 433.004 721.939 433.004C723.022 433.004 724.11 433.248 725.077 433.718C726.085 434.189 726.978 434.878 727.713 435.743L728.837 437.029V434.106C728.837 428.932 732.48 424.739 736.939 424.739C741.435 424.739 745.077 428.932 745.077 434.106V437.025L746.201 435.743C746.939 434.878 747.829 434.189 748.837 433.718C749.807 433.248 750.892 433.004 751.978 433.004C753.022 433.004 754.11 433.248 755.077 433.718C756.085 434.189 756.978 434.878 757.713 435.743C762.559 441.315 759.069 447.437 757.713 448.986L745.077 463.516V463.946C745.077 472.791 747.791 481.243 752.559 487.953C758.526 480.013 763.217 470.02 766.589 458.004C764.108 450.354 760.272 432.232 770.116 411.685C775.234 400.923 785.154 389.613 795.931 382.164Z" fill="#3B4262"/>
</g>
</g>
</g>
</g>
<defs>
<filter id="filter0_i" x="457.5" y="247.5" width="525" height="529" filterUnits="userSpaceOnUse" color-interpolation-filters="sRGB">
<feFlood flood-opacity="0" result="BackgroundImageFix"/>
<feBlend mode="normal" in="SourceGraphic" in2="BackgroundImageFix" result="shape"/>
<feColorMatrix in="SourceAlpha" type="matrix" values="0 0 0 0 0 0 0 0 0 0 0 0 0 0 0 0 0 0 127 0" result="hardAlpha"/>
<feOffset dy="-10"/>
<feGaussianBlur stdDeviation="2"/>
<feComposite in2="hardAlpha" operator="arithmetic" k2="-1" k3="1"/>
<feColorMatrix type="matrix" values="0 0 0 0 0 0 0 0 0 0 0 0 0 0 0 0 0 0 0.25 0"/>
<feBlend mode="normal" in2="shape" result="effect1_innerShadow"/>
</filter>
</defs>
</svg>
