<svg width="1440" height="1028" viewBox="0 0 1440 1028" fill="none" xmlns="http://www.w3.org/2000/svg">
<g id="paper 2">
<g id="paper 1">
<g id="separate 1 1">
<g id="paper">
<g id="paper-outline" filter="url(#filter0_i)">
<path id="Vector" d="M720 764C853.333 764 970 656.941 970 514C970 371.059 853.333 264 720 264C586.667 264 470 371.059 470 514C470 656.941 586.667 764 720 764Z" stroke="#280BDD" stroke-width="25"/>
</g>
<path id="paper-container" d="M721.999 757C856.21 757 965 648.207 965 514C965 379.796 856.21 271 721.999 271C587.789 271 479 379.796 479 514C479 648.207 587.789 757 721.999 757Z" fill="white"/>
<path id="paper-icon" d="M851.705 421.854C849.419 421.059 847.016 420.709 844.573 420.831C841.278 421.038 838.604 422.232 837.055 424.194C827.752 435.824 820.155 457.786 813.992 475.441C811.201 483.597 807.402 494.52 804.689 499.705C801.821 485.18 805.039 431.98 806.278 411.491L806.317 411.16C807.171 396.928 807.287 394.428 807.132 393.331C805.736 385.525 802.248 380.399 796.705 378.106C791.124 375.777 783.837 376.811 776.047 381.016C772.094 383.14 771.008 390.412 767.675 423.39L767.636 423.538C765.815 441.655 761.512 483.378 756.278 490.327C750.35 480.606 742.209 425.374 738.683 401.466C736.24 384.723 734.807 375.108 733.837 372.205C731.782 366.122 723.218 360.95 714.768 360.66C707.713 360.349 701.898 363.554 699.146 369.135C693.953 374.282 695.813 391.34 701.512 431.748C704.226 450.984 709.846 490.703 706.317 495.164C699.264 494.475 687.171 469.592 670.35 421.18C665.62 407.626 664.185 403.55 662.713 401.764C659.846 395.545 650.154 390.748 641.435 391.295C640.697 391.34 640 391.423 639.264 391.545C634.73 392.354 624.303 396.106 626.551 413.412C632.675 437.403 639.341 455.014 645.813 472.113L645.931 472.453C649.807 482.698 653.488 492.374 656.898 503.108C664.884 528.462 661.783 544.189 661.744 544.369C661.474 545.984 660.931 546.971 660.077 547.32C659.73 547.457 659.342 547.534 658.953 547.55C656.396 547.705 652.598 546.205 650.62 545.223C646.124 537.554 623.799 501.016 603.565 495.95L602.829 495.757L602.093 495.82C594.65 496.446 589.226 498.953 585.854 503.273C580.581 510.106 582.791 518.806 583.295 520.554L583.606 521.176C583.76 521.441 600 547.899 602.518 560.205C604.689 570.761 615.892 582.194 624.923 591.383L625.272 591.761C628.217 594.761 630.736 597.365 632.752 599.768C658.915 624.155 700.27 644.664 700.581 644.836C705.774 648.234 708.644 651.525 708.953 654.354C709.069 655.424 708.76 656.5 708.024 657.354L707.094 658.194L712.829 663.16L821.939 656.311L826.589 637.248C840.97 583.432 837.984 537.543 837.945 537.239C837.984 535.55 842.016 519.219 845.27 506.025L845.35 505.689C851.821 479.408 859.845 446.709 861.394 434.277C862.055 428.957 858.256 424.077 851.705 421.854Z" fill="#3B4262"/>
</g>
</g>
</g>
</g>
<defs>
<filter id="filter0_i" x="457.5" y="247.5" width="525" height="529" filterUnits="userSpaceOnUse" color-interpolation-filters="sRGB">
<feFlood flood-opacity="0" result="BackgroundImageFix"/>
<feBlend mode="normal" in="SourceGraphic" in2="BackgroundImageFix" result="shape"/>
<feColorMatrix in="SourceAlpha" type="matrix" values="0 0 0 0 0 0 0 0 0 0 0 0 0 0 0 0 0 0 127 0" result="hardAlpha"/>
<feOffset dy="-10"/>
<feGaussianBlur stdDeviation="2"/>
<feComposite in2="hardAlpha" operator="arithmetic" k2="-1" k3="1"/>
<feColorMatrix type="matrix" values="0 0 0 0 0 0 0 0 0 0 0 0 0 0 0 0 0 0 0.25 0"/>
<feBlend mode="normal" in2="shape" result="effect1_innerShadow"/>
</filter>
</defs>
</svg>
