<svg width="1440" height="1028" viewBox="0 0 1440 1028" fill="none" xmlns="http://www.w3.org/2000/svg">
<g id="spock 2">
<g id="spock 1">
<g id="separate 1 1">
<g id="spock">
<g id="spock-outline" filter="url(#filter0_i)">
<path id="Vector_4" d="M720 764C853.346 764 970 656.941 970 514C970 371.059 853.346 264 720 264C586.654 264 470 371.059 470 514C470 656.941 586.654 764 720 764Z" stroke="#1D8BC8" stroke-width="25"/>
</g>
<path id="spock-container" d="M719.999 757C854.206 757 963 648.207 963 514C963 379.796 854.206 271 719.999 271C585.794 271 477 379.796 477 514C477 648.207 585.794 757 719.999 757Z" fill="white"/>
<path id="spock-icon" d="M843.919 528.655L838.973 524.135C827.15 513.331 807.821 510.986 793.392 518.559L762.565 534.646L768.988 405.791C768.988 394.991 759.368 386.198 747.526 386.198C744.97 386.198 742.508 386.613 740.228 387.365L740.996 380.45C740.996 369.525 731.222 360.64 719.222 360.64C708.12 360.64 698.813 368.239 697.64 377.986L677.856 487.11C677.602 488.592 674.783 488.441 674.484 487.504L651.12 400.02C649.85 396.043 647.205 392.543 643.585 390.05C639.969 387.559 635.565 386.205 631.043 386.198C624.632 386.198 618.675 388.831 614.687 393.428C612.726 395.671 611.35 398.297 610.663 401.106C609.978 403.917 610 406.829 610.73 409.626L615.268 427.243C612.679 427.059 610.073 427.358 607.616 428.126C603.154 429.475 599.36 432.234 596.915 435.917C594.474 439.592 593.539 443.95 594.278 448.205L608.026 520.392C608.026 548.865 613.492 569.946 618.085 582.601C620.705 589.883 622.034 597.5 622.022 605.169C622.022 611.921 620.996 618.642 618.961 625.131L608.299 659.218C607.701 661.146 608.124 663.218 609.435 664.82C610.764 666.421 612.825 667.36 615.022 667.36H740.988C742.097 667.365 743.189 667.126 744.175 666.664C745.163 666.205 746.016 665.538 746.663 664.714C747.313 663.894 747.74 662.941 747.911 661.941C748.081 660.937 747.988 659.912 747.64 658.946C747.565 658.786 741.717 642.282 747.256 619.836C754.278 614.631 778.872 596.369 787.701 589.009C802.299 576.831 842.291 539.219 843.988 537.617C845.272 536.417 845.98 534.802 845.969 533.122C845.957 531.441 845.222 529.836 843.919 528.651V528.655Z" fill="#3B4262"/>
</g>
</g>
</g>
</g>
<defs>
<filter id="filter0_i" x="457.5" y="247.5" width="525" height="529" filterUnits="userSpaceOnUse" color-interpolation-filters="sRGB">
<feFlood flood-opacity="0" result="BackgroundImageFix"/>
<feBlend mode="normal" in="SourceGraphic" in2="BackgroundImageFix" result="shape"/>
<feColorMatrix in="SourceAlpha" type="matrix" values="0 0 0 0 0 0 0 0 0 0 0 0 0 0 0 0 0 0 127 0" result="hardAlpha"/>
<feOffset dy="-10"/>
<feGaussianBlur stdDeviation="2"/>
<feComposite in2="hardAlpha" operator="arithmetic" k2="-1" k3="1"/>
<feColorMatrix type="matrix" values="0 0 0 0 0 0 0 0 0 0 0 0 0 0 0 0 0 0 0.25 0"/>
<feBlend mode="normal" in2="shape" result="effect1_innerShadow"/>
</filter>
</defs>
</svg>
