<svg width="1440" height="1028" viewBox="0 0 1440 1028" fill="none" xmlns="http://www.w3.org/2000/svg">
<g id="separate 1 1">
<g id="paper">
<g id="paper-outline" filter="url(#filter0_i)">
<path id="Vector" d="M778 676C843.6 676 901 628.466 901 565C901 501.534 843.6 454 778 454C712.4 454 655 501.534 655 565C655 628.466 712.4 676 778 676Z" stroke="#280BDD" stroke-width="25"/>
</g>
<path id="paper-container" d="M778.953 662.008C840.568 662.008 890.512 618.159 890.512 564.067C890.512 509.976 840.568 466.126 778.953 466.126C717.339 466.126 667.395 509.976 667.395 564.067C667.395 618.159 717.339 662.008 778.953 662.008Z" fill="white"/>
<path id="paper-icon" d="M842.799 524.087C841.674 523.734 840.492 523.579 839.29 523.633C837.669 523.725 836.353 524.255 835.591 525.126C831.014 530.29 827.276 540.041 824.244 547.88C822.871 551.501 821.002 556.351 819.667 558.653C818.256 552.204 819.839 528.583 820.449 519.486L820.468 519.339C820.888 513.02 820.945 511.91 820.869 511.423C820.182 507.957 818.466 505.681 815.739 504.663C812.993 503.629 809.408 504.088 805.575 505.955C803.63 506.898 803.096 510.127 801.456 524.769L801.437 524.835C800.541 532.879 798.424 551.404 795.849 554.489C792.932 550.173 788.927 525.65 787.192 515.035C785.99 507.601 785.285 503.332 784.808 502.043C783.797 499.342 779.583 497.046 775.426 496.917C771.955 496.779 769.094 498.202 767.74 500.68C765.185 502.965 766.1 510.539 768.904 528.48C770.239 537.021 773.004 554.656 771.268 556.637C767.798 556.331 761.848 545.283 753.572 523.788C751.245 517.77 750.539 515.96 749.815 515.167C748.404 512.406 743.636 510.276 739.346 510.519C738.983 510.539 738.64 510.576 738.278 510.63C736.047 510.989 730.917 512.655 732.023 520.339C735.036 530.991 738.316 538.81 741.5 546.402L741.558 546.553C743.465 551.102 745.276 555.398 746.954 560.164C750.883 571.421 749.357 578.404 749.338 578.484C749.205 579.201 748.938 579.639 748.518 579.794C748.347 579.855 748.156 579.889 747.965 579.896C746.707 579.965 744.838 579.299 743.865 578.863C741.653 575.458 730.669 559.235 720.714 556.986L720.352 556.9L719.99 556.928C716.328 557.206 713.659 558.319 712 560.237C709.406 563.271 710.493 567.134 710.741 567.91L710.894 568.186C710.97 568.304 718.96 580.051 720.199 585.515C721.267 590.202 726.779 595.278 731.222 599.358L731.394 599.526C732.843 600.858 734.082 602.014 735.074 603.081C747.946 613.909 768.293 623.015 768.446 623.091C771.001 624.6 772.413 626.061 772.565 627.317C772.622 627.792 772.47 628.27 772.108 628.649L771.65 629.022L774.472 631.227L828.154 628.186L830.442 619.722C837.517 595.828 836.048 575.453 836.029 575.318C836.048 574.568 838.032 567.317 839.633 561.459L839.672 561.31C842.856 549.641 846.804 535.123 847.566 529.603C847.891 527.241 846.022 525.074 842.799 524.087Z" fill="#3B4262"/>
</g>
</g>
<defs>
<filter id="filter0_i" x="642.5" y="437.5" width="271" height="251" filterUnits="userSpaceOnUse" color-interpolation-filters="sRGB">
<feFlood flood-opacity="0" result="BackgroundImageFix"/>
<feBlend mode="normal" in="SourceGraphic" in2="BackgroundImageFix" result="shape"/>
<feColorMatrix in="SourceAlpha" type="matrix" values="0 0 0 0 0 0 0 0 0 0 0 0 0 0 0 0 0 0 127 0" result="hardAlpha"/>
<feOffset dy="-10"/>
<feGaussianBlur stdDeviation="2"/>
<feComposite in2="hardAlpha" operator="arithmetic" k2="-1" k3="1"/>
<feColorMatrix type="matrix" values="0 0 0 0 0 0 0 0 0 0 0 0 0 0 0 0 0 0 0.25 0"/>
<feBlend mode="normal" in2="shape" result="effect1_innerShadow"/>
</filter>
</defs>
</svg>
