<svg width="1440" height="1028" viewBox="0 0 1440 1028" fill="none" xmlns="http://www.w3.org/2000/svg">
<g id="separate 1">
<g id="separte">
<g id="scisor">
<g id="scisor-outline" filter="url(#filter0_i)">
<path id="Vector_5" d="M720 625C785.606 625 843 577.466 843 514C843 450.534 785.606 403 720 403C654.394 403 597 450.534 597 514C597 577.466 654.394 625 720 625Z" stroke="#DDA20B" stroke-width="25"/>
</g>
<path id="scisor-container" d="M720.953 611.008C782.566 611.008 832.512 567.159 832.512 513.067C832.512 458.976 782.566 415.126 720.953 415.126C659.341 415.126 609.395 458.976 609.395 513.067C609.395 567.159 659.341 611.008 720.953 611.008Z" fill="white"/>
<path id="scisor-icon" d="M685.943 509.351L703.703 487.968C696.321 486.914 682.766 486.681 671.664 496.188C654.162 511.177 647.073 543.556 645.595 551.395L690.076 589.489C698.085 588.9 733.538 584.846 767.703 555.592C768.063 554.96 776.387 549.693 769.581 543.867C766.332 541.086 760.96 541.138 757.642 543.979C755.952 545.429 753.326 545.446 751.673 544.03C750.018 542.616 750.043 540.364 751.732 538.918L763.803 528.579C769.936 523.326 764.156 514.463 755.592 516.593L745.712 523.837C743.906 525.184 741.221 524.953 739.739 523.481C738.206 521.964 738.534 519.662 740.279 518.367C774.801 492.429 769.759 495.55 791.973 477.723C800.27 471.805 789.832 461.341 781.654 467.33L727.922 508.711C726.36 509.849 723.965 509.872 722.428 508.659C720.652 507.346 720.612 505.452 721.772 503.96L759.249 454.064C764.726 447.712 753.946 440.654 748.176 447.059L692.765 513.429C691.43 515.08 688.735 515.463 686.901 514.306C686.454 514.039 686.073 513.698 685.781 513.302C685.489 512.907 685.295 512.465 685.205 512.002C685.116 511.539 685.137 511.067 685.264 510.612C685.39 510.157 685.623 509.728 685.947 509.351H685.943Z" fill="#3B4262"/>
</g>
</g>
</g>
<defs>
<filter id="filter0_i" x="584.5" y="386.5" width="271" height="251" filterUnits="userSpaceOnUse" color-interpolation-filters="sRGB">
<feFlood flood-opacity="0" result="BackgroundImageFix"/>
<feBlend mode="normal" in="SourceGraphic" in2="BackgroundImageFix" result="shape"/>
<feColorMatrix in="SourceAlpha" type="matrix" values="0 0 0 0 0 0 0 0 0 0 0 0 0 0 0 0 0 0 127 0" result="hardAlpha"/>
<feOffset dy="-10"/>
<feGaussianBlur stdDeviation="2"/>
<feComposite in2="hardAlpha" operator="arithmetic" k2="-1" k3="1"/>
<feColorMatrix type="matrix" values="0 0 0 0 0 0 0 0 0 0 0 0 0 0 0 0 0 0 0.25 0"/>
<feBlend mode="normal" in2="shape" result="effect1_innerShadow"/>
</filter>
</defs>
</svg>
