<svg width="1440" height="1028" viewBox="0 0 1440 1028" fill="none" xmlns="http://www.w3.org/2000/svg">
<g id="separate 1 1">
<g id="spock">
<g id="spock-outline" filter="url(#filter0_i)">
<path id="Vector_4" d="M671 677C736.606 677 794 629.466 794 566C794 502.534 736.606 455 671 455C605.394 455 548 502.534 548 566C548 629.466 605.394 677 671 677Z" stroke="#1D8BC8" stroke-width="25"/>
</g>
<path id="spock-container" d="M671.953 663.008C733.566 663.008 783.512 619.159 783.512 565.067C783.512 510.976 733.566 467.126 671.953 467.126C610.341 467.126 560.395 510.976 560.395 565.067C560.395 619.159 610.341 663.008 671.953 663.008Z" fill="white"/>
<path id="spock-icon" d="M731.968 572.507L729.535 570.5C723.718 565.703 714.208 564.662 707.109 568.024L691.942 575.167L695.102 517.955C695.102 513.16 690.369 509.256 684.543 509.256C683.285 509.256 682.074 509.44 680.952 509.774L681.33 506.704C681.33 501.853 676.521 497.908 670.617 497.908C665.155 497.908 660.576 501.282 659.999 505.61L650.265 554.061C650.14 554.719 648.753 554.652 648.606 554.236L637.111 515.393C636.486 513.627 635.185 512.073 633.404 510.966C631.625 509.86 629.458 509.259 627.233 509.256C624.079 509.256 621.148 510.425 619.186 512.466C618.221 513.462 617.544 514.628 617.206 515.875C616.869 517.123 616.88 518.416 617.239 519.658L619.472 527.48C618.198 527.398 616.916 527.531 615.707 527.872C613.512 528.471 611.645 529.696 610.442 531.331C609.241 532.963 608.781 534.898 609.145 536.787L615.909 568.838C615.909 581.48 618.598 590.84 620.858 596.459C622.147 599.692 622.801 603.074 622.795 606.479C622.795 609.477 622.29 612.461 621.289 615.342L616.043 630.477C615.749 631.333 615.957 632.253 616.602 632.964C617.256 633.675 618.27 634.092 619.351 634.092H681.326C681.872 634.094 682.409 633.988 682.894 633.783C683.38 633.579 683.8 633.283 684.118 632.917C684.438 632.553 684.648 632.13 684.732 631.686C684.816 631.24 684.77 630.785 684.599 630.356C684.562 630.285 681.685 622.957 684.41 612.991C687.865 610.68 699.965 602.572 704.309 599.304C711.491 593.897 731.167 577.197 732.002 576.486C732.634 575.953 732.982 575.236 732.977 574.49C732.971 573.744 732.609 573.031 731.968 572.505V572.507Z" fill="#3B4262"/>
</g>
</g>
<defs>
<filter id="filter0_i" x="535.5" y="438.5" width="271" height="251" filterUnits="userSpaceOnUse" color-interpolation-filters="sRGB">
<feFlood flood-opacity="0" result="BackgroundImageFix"/>
<feBlend mode="normal" in="SourceGraphic" in2="BackgroundImageFix" result="shape"/>
<feColorMatrix in="SourceAlpha" type="matrix" values="0 0 0 0 0 0 0 0 0 0 0 0 0 0 0 0 0 0 127 0" result="hardAlpha"/>
<feOffset dy="-10"/>
<feGaussianBlur stdDeviation="2"/>
<feComposite in2="hardAlpha" operator="arithmetic" k2="-1" k3="1"/>
<feColorMatrix type="matrix" values="0 0 0 0 0 0 0 0 0 0 0 0 0 0 0 0 0 0 0.25 0"/>
<feBlend mode="normal" in2="shape" result="effect1_innerShadow"/>
</filter>
</defs>
</svg>
